<svg xmlns="http://www.w3.org/2000/svg" version="1.1" xmlns:xlink="http://www.w3.org/1999/xlink" xmlns:svgjs="http://svgjs.dev/svgjs" width="1500" height="1500" viewBox="0 0 1500 1500"><g transform="matrix(1,0,0,1,-0.323615160350073,-0.3236151603499593)"><svg viewBox="0 0 343 343" data-background-color="#2d3b41" preserveAspectRatio="xMidYMid meet" height="1500" width="1500" xmlns="http://www.w3.org/2000/svg" xmlns:xlink="http://www.w3.org/1999/xlink"><g id="tight-bounds" transform="matrix(1,0,0,1,0.0740000000000407,0.07400000000001228)"><svg viewBox="0 0 342.85155851775386 342.85155851775386" height="342.85155851775386" width="342.85155851775386"><g><svg></svg></g><g><svg viewBox="0 0 342.85155851775386 342.85155851775386" height="342.85155851775386" width="342.85155851775386"><g><path d="M0 171.426c0-94.676 76.75-171.426 171.426-171.426 94.676 0 171.426 76.75 171.426 171.426 0 94.676-76.75 171.426-171.426 171.426-94.676 0-171.426-76.75-171.426-171.426zM171.426 339.822c93.003 0 168.396-75.394 168.396-168.396 0-93.003-75.394-168.396-168.396-168.397-93.003 0-168.396 75.394-168.397 168.397 0 93.003 75.394 168.396 168.397 168.396z" data-fill-palette-color="tertiary" fill="#2d3b41" stroke="transparent"></path><ellipse rx="164.56874808852186" ry="164.56874808852186" cx="171.42577925887693" cy="171.42577925887693" fill="#2d3b41" stroke="transparent" stroke-width="0" fill-opacity="1" data-fill-palette-color="tertiary"></ellipse></g><g transform="matrix(1,0,0,1,64.84655864529837,104.8335683190806)"><svg viewBox="0 0 213.1584412271571 133.18442187959266" height="133.18442187959266" width="213.1584412271571"><g><svg viewBox="0 0 213.1584412271571 133.18442187959266" height="133.18442187959266" width="213.1584412271571"><g><svg viewBox="0 0 213.1584412271571 133.18442187959266" height="133.18442187959266" width="213.1584412271571"><g transform="matrix(1,0,0,1,0,80.6008010519052)"><svg viewBox="0 0 213.1584412271571 52.583620827687454" height="52.583620827687454" width="213.1584412271571"><g id="textblocktransform"><svg viewBox="0 0 213.1584412271571 52.583620827687454" height="52.583620827687454" width="213.1584412271571" id="textblock"><g><svg viewBox="0 0 213.1584412271571 33.591881716231725" height="33.591881716231725" width="213.1584412271571"><g transform="matrix(1,0,0,1,0,0)"><svg width="213.1584412271571" viewBox="2.7 -33.5 216.68 34.15" height="33.591881716231725" data-palette-color="#f6bc00"><path d="M28.5-14.35L28.5-14.35 28.5-3.5Q28.5-2.6 27.98-1.98 27.45-1.35 26.4-0.85L26.4-0.85Q25.15-0.2 22.95 0.23 20.75 0.65 18.5 0.65L18.5 0.65Q13.85 0.65 10.28-1.05 6.7-2.75 4.7-6.25 2.7-9.75 2.7-15.15L2.7-15.15Q2.7-20.5 4.78-24.03 6.85-27.55 10.3-29.3 13.75-31.05 17.85-31.05L17.85-31.05Q20.7-31.05 22.85-30.45 25-29.85 26.2-28.95 27.4-28.05 27.4-27.1L27.4-27.1Q27.4-26.45 27-25.93 26.6-25.4 26.05-25.15L26.05-25.15Q24.7-26.05 22.85-26.83 21-27.6 18.1-27.6L18.1-27.6Q14.95-27.6 12.4-26.2 9.85-24.8 8.38-22.03 6.9-19.25 6.9-15.15L6.9-15.15Q6.9-10.85 8.43-8.13 9.95-5.4 12.6-4.1 15.25-2.8 18.55-2.8L18.55-2.8Q20.35-2.8 21.95-3.1 23.55-3.4 24.45-3.85L24.45-3.85 24.45-13.05 16.9-13.05Q16.75-13.3 16.6-13.73 16.45-14.15 16.45-14.65L16.45-14.65Q16.45-15.5 16.85-15.98 17.25-16.45 18-16.45L18-16.45 26.35-16.45Q27.25-16.45 27.88-15.88 28.5-15.3 28.5-14.35ZM35.35-30.4L35.35-30.4 35.35-30.4Q35.35-31.45 36.1-32.18 36.85-32.9 37.95-32.9L37.95-32.9Q39.1-32.9 39.8-32.18 40.5-31.45 40.5-30.4L40.5-30.4Q40.5-29.35 39.8-28.63 39.1-27.9 37.95-27.9L37.95-27.9Q36.85-27.9 36.1-28.63 35.35-29.35 35.35-30.4ZM35.95-1.55L35.95-13.2 39.95-13.2 39.95-0.1Q39.7 0 39.2 0.13 38.7 0.25 38.1 0.25L38.1 0.25Q37.05 0.25 36.5-0.18 35.95-0.6 35.95-1.55L35.95-1.55ZM39.95-21.5L39.95-11.25 35.95-11.25 35.95-23Q36.2-23.1 36.72-23.23 37.25-23.35 37.85-23.35L37.85-23.35Q38.9-23.35 39.42-22.93 39.95-22.5 39.95-21.5L39.95-21.5ZM60.6-18.55L51.1-18.55 51.1-21.8 61.7-21.8Q61.85-21.6 62-21.18 62.15-20.75 62.15-20.2L62.15-20.2Q62.15-19.4 61.75-18.98 61.35-18.55 60.6-18.55L60.6-18.55ZM51.8-24.95L51.8-24.95 51.8-19.1 47.85-19.1 47.85-25.15Q47.85-28.1 48.92-29.93 50-31.75 52.02-32.63 54.05-33.5 56.85-33.5L56.85-33.5Q59.7-33.5 61.32-32.75 62.95-32 62.95-30.9L62.95-30.9Q62.95-30.35 62.72-29.9 62.5-29.45 62.1-29.05L62.1-29.05Q61.2-29.55 59.85-29.88 58.5-30.2 57.25-30.2L57.25-30.2Q54.2-30.2 53-28.95 51.8-27.7 51.8-24.95ZM47.85-1.55L47.85-21.3 51.85-21.3 51.85-0.1Q51.6 0 51.1 0.13 50.6 0.25 50 0.25L50 0.25Q48.95 0.25 48.4-0.18 47.85-0.6 47.85-1.55L47.85-1.55ZM67.74-6.05L67.74-13.2 71.74-13.2 71.74-6.3Q71.74-4.3 72.89-3.48 74.04-2.65 76.04-2.65L76.04-2.65Q76.89-2.65 77.94-2.95 78.99-3.25 79.69-3.65L79.69-3.65Q79.99-3.35 80.24-2.9 80.49-2.45 80.49-1.85L80.49-1.85Q80.49-0.75 79.19-0.05 77.89 0.65 75.59 0.65L75.59 0.65Q72.09 0.65 69.92-0.9 67.74-2.45 67.74-6.05L67.74-6.05ZM78.89-19.3L69.79-19.3 69.79-22.6 79.94-22.6Q80.09-22.4 80.24-21.95 80.39-21.5 80.39-21L80.39-21Q80.39-20.2 79.99-19.75 79.59-19.3 78.89-19.3L78.89-19.3ZM71.74-28.35L71.74-11.7 67.74-11.7 67.74-29.8Q67.99-29.9 68.52-30.03 69.04-30.15 69.64-30.15L69.64-30.15Q70.69-30.15 71.22-29.73 71.74-29.3 71.74-28.35L71.74-28.35ZM91.04-30L91.04-12.3 86.99-12.35 86.99-28.2Q86.99-29.2 87.59-29.8 88.19-30.4 89.19-30.4L89.19-30.4Q89.74-30.4 90.29-30.25 90.84-30.1 91.04-30L91.04-30ZM102.94-13.1L89.19-13.1 89.19-16.55 104.04-16.55Q104.19-16.3 104.34-15.88 104.49-15.45 104.49-14.95L104.49-14.95Q104.49-14.15 104.09-13.63 103.69-13.1 102.94-13.1L102.94-13.1ZM104.69-26.95L89.19-26.95 89.19-30.4 105.79-30.4Q105.94-30.2 106.09-29.75 106.24-29.3 106.24-28.8L106.24-28.8Q106.24-28 105.84-27.48 105.44-26.95 104.69-26.95L104.69-26.95ZM86.99-1.55L86.99-17.8 91.09-17.8 91.09-0.05Q90.84 0 90.32 0.13 89.79 0.25 89.24 0.25L89.24 0.25Q88.14 0.25 87.57-0.2 86.99-0.65 86.99-1.55L86.99-1.55ZM111.79-30.4L111.79-30.4 111.79-30.4Q111.79-31.45 112.54-32.18 113.29-32.9 114.39-32.9L114.39-32.9Q115.54-32.9 116.24-32.18 116.94-31.45 116.94-30.4L116.94-30.4Q116.94-29.35 116.24-28.63 115.54-27.9 114.39-27.9L114.39-27.9Q113.29-27.9 112.54-28.63 111.79-29.35 111.79-30.4ZM112.39-1.55L112.39-13.2 116.39-13.2 116.39-0.1Q116.14 0 115.64 0.13 115.14 0.25 114.54 0.25L114.54 0.25Q113.49 0.25 112.94-0.18 112.39-0.6 112.39-1.55L112.39-1.55ZM116.39-21.5L116.39-11.25 112.39-11.25 112.39-23Q112.64-23.1 113.16-23.23 113.69-23.35 114.29-23.35L114.29-23.35Q115.34-23.35 115.86-22.93 116.39-22.5 116.39-21.5L116.39-21.5ZM144.19-15.25L144.19-15.25 144.19-10.15 140.19-10.15 140.19-15.05Q140.19-17.85 138.61-19.15 137.04-20.45 134.39-20.45L134.39-20.45Q132.39-20.45 130.84-19.95 129.29-19.45 128.19-18.8L128.19-18.8 128.19-10.15 124.19-10.15 124.19-18.6Q124.19-19.65 124.61-20.33 125.04-21 126.09-21.65L126.09-21.65Q127.39-22.4 129.54-23.08 131.69-23.75 134.39-23.75L134.39-23.75Q138.94-23.75 141.56-21.68 144.19-19.6 144.19-15.25ZM124.19-1.55L124.19-12.9 128.19-12.9 128.19-0.1Q127.94 0 127.44 0.13 126.94 0.25 126.34 0.25L126.34 0.25Q125.29 0.25 124.74-0.18 124.19-0.6 124.19-1.55L124.19-1.55ZM140.19-1.55L140.19-12.9 144.19-12.9 144.19-0.1Q143.94 0 143.41 0.13 142.89 0.25 142.34 0.25L142.34 0.25Q141.24 0.25 140.71-0.18 140.19-0.6 140.19-1.55L140.19-1.55ZM167.43-3.95L167.43-3.95 167.43-20.75 171.43-20.8 171.43-3.8Q171.43-2.85 171.01-2.27 170.58-1.7 169.68-1.15L169.68-1.15Q168.68-0.5 166.98 0.08 165.28 0.65 162.88 0.65L162.88 0.65Q159.28 0.65 156.46-0.6 153.63-1.85 152.01-4.53 150.38-7.2 150.38-11.45L150.38-11.45Q150.38-15.8 151.91-18.5 153.43-21.2 156.03-22.48 158.63-23.75 161.73-23.75L161.73-23.75Q163.68-23.75 165.43-23.2 167.18-22.65 168.18-21.85L168.18-21.85 168.18-18.15Q167.23-19.1 165.71-19.78 164.18-20.45 162.13-20.45L162.13-20.45Q160.08-20.45 158.33-19.58 156.58-18.7 155.53-16.7 154.48-14.7 154.48-11.35L154.48-11.35Q154.48-6.8 156.68-4.73 158.88-2.65 162.53-2.65L162.53-2.65Q164.28-2.65 165.41-3.03 166.53-3.4 167.43-3.95ZM171.43-30.95L171.43-19.8 167.43-19.75 167.43-32.4Q167.68-32.5 168.21-32.63 168.73-32.75 169.28-32.75L169.28-32.75Q170.38-32.75 170.91-32.33 171.43-31.9 171.43-30.95L171.43-30.95ZM197.28-11.35L180.48-9 180.28-12.15 195.38-14.2Q195.18-16.95 193.48-18.73 191.78-20.5 188.78-20.5L188.78-20.5Q185.68-20.5 183.66-18.28 181.63-16.05 181.63-11.9L181.63-11.9 181.63-10.8Q181.98-6.8 184.25-4.73 186.53-2.65 190.48-2.65L190.48-2.65Q192.58-2.65 194.28-3.35 195.98-4.05 196.98-4.85L196.98-4.85Q197.53-4.5 197.86-4.03 198.18-3.55 198.18-2.95L198.18-2.95Q198.18-2 197.11-1.18 196.03-0.35 194.25 0.15 192.48 0.65 190.28 0.65L190.28 0.65Q186.43 0.65 183.6-0.75 180.78-2.15 179.25-4.93 177.73-7.7 177.73-11.7L177.73-11.7Q177.73-14.55 178.56-16.78 179.38-19 180.85-20.55 182.33-22.1 184.38-22.93 186.43-23.75 188.83-23.75L188.83-23.75Q191.88-23.75 194.21-22.45 196.53-21.15 197.86-18.82 199.18-16.5 199.18-13.5L199.18-13.5Q199.18-12.4 198.68-11.93 198.18-11.45 197.28-11.35L197.28-11.35ZM208.98-18.8L208.98-18.8 208.98-10.9 204.98-10.9 204.98-18.5Q204.98-19.65 205.4-20.33 205.83-21 206.83-21.65L206.83-21.65Q208.13-22.5 210.38-23.13 212.63-23.75 215.38-23.75L215.38-23.75Q219.38-23.75 219.38-21.75L219.38-21.75Q219.38-21.25 219.23-20.83 219.08-20.4 218.83-20.1L218.83-20.1Q218.33-20.2 217.53-20.3 216.73-20.4 215.93-20.4L215.93-20.4Q213.63-20.4 211.88-19.93 210.13-19.45 208.98-18.8ZM204.98-1.55L204.98-13.2 208.98-12.6 208.98-0.1Q208.73 0 208.23 0.13 207.73 0.25 207.13 0.25L207.13 0.25Q206.08 0.25 205.53-0.18 204.98-0.6 204.98-1.55L204.98-1.55Z" opacity="1" transform="matrix(1,0,0,1,0,0)" fill="#f6bc00" class="wordmark-text-0" data-fill-palette-color="quaternary" id="text-0"></path></svg></g></svg></g><g transform="matrix(1,0,0,1,0,41.52211878427285)"><svg viewBox="0 0 213.1584412271571 11.061502043414608" height="11.061502043414608" width="213.1584412271571"><g transform="matrix(1,0,0,1,0,0)"><svg width="213.1584412271571" viewBox="2.35 -39.15 936.18 48.65" height="11.061502043414608" data-palette-color="#f6bc00"><path d="M18.9 0L13.6 0 13.6-30.4 2.35-30.4 2.35-34.9 30.15-34.9 30.15-30.4 18.9-30.4 18.9 0ZM51.55 0L46.5 0 46.5-27.5 51.55-27.5 51.55 0ZM61 0L36.35 0 36.35-4.1 61-4.1 61 0ZM49-23.4L40-23.4 40-27.5 49-27.5 49-23.4ZM51.8-32.2L46.15-32.2 46.15-37.65 51.8-37.65 51.8-32.2ZM95 0L90.34 0 90.34-20.1Q90.34-21.9 89.72-22.9 89.09-23.9 87.8-23.9L87.8-23.9Q86-23.9 84.57-21.6 83.15-19.3 82.59-14.35L82.59-14.35 82.15-18.6Q82.3-23.1 84.27-25.6 86.25-28.1 89.15-28.1L89.15-28.1Q91.84-28.1 93.42-26.13 95-24.15 95-20.5L95-20.5 95 0ZM72.15 0L67.5 0 67.5-27.5 71.95-27.5 72.15-22.15 72.15 0ZM83.55 0L78.95 0 78.95-20.1Q78.95-22 78.27-22.95 77.59-23.9 76.25-23.9L76.25-23.9Q74.34-23.9 73-21.5 71.65-19.1 71.09-14.35L71.09-14.35 71-18.75Q71.09-21.7 72.05-23.8 73-25.9 74.5-27 76-28.1 77.7-28.1L77.7-28.1Q80.5-28.1 82.02-26.08 83.55-24.05 83.55-20.55L83.55-20.55 83.55 0ZM114.04 0.6L114.04 0.6Q109.79 0.6 106.69-1.13 103.59-2.85 101.94-6.08 100.29-9.3 100.29-13.8L100.29-13.8Q100.29-18.3 101.97-21.5 103.64-24.7 106.77-26.4 109.89-28.1 114.24-28.1L114.24-28.1Q120.89-28.1 124.14-24.43 127.39-20.75 126.99-14.35L126.99-14.35 104.29-14.35 104.34-18.15 121.84-18.1Q121.64-20.75 119.54-22.35 117.44-23.95 114.24-23.95L114.24-23.95Q109.94-23.95 107.64-21.25 105.34-18.55 105.34-13.6L105.34-13.6Q105.34-10.65 106.37-8.38 107.39-6.1 109.34-4.85 111.29-3.6 114.04-3.6L114.04-3.6Q117.29-3.6 119.47-5.15 121.64-6.7 122.14-9.35L122.14-9.35 127.19-9.35Q126.54-4.7 123.04-2.05 119.54 0.6 114.04 0.6ZM191.09 0L180.99 0Q178.44 0 176.64-1.03 174.84-2.05 173.94-3.95 173.04-5.85 173.04-8.4L173.04-8.4 173.04-32.7 178.09-35.45 178.09-8.4Q178.09-7.2 178.44-6.2 178.79-5.2 179.81-4.65 180.84-4.1 182.84-4.1L182.84-4.1 191.09-4.1 191.09 0ZM186.69-23.4L166.54-23.4 166.54-27.5 186.69-27.5 186.69-23.4ZM211.19 0.6L211.19 0.6Q206.94 0.6 203.86-1.15 200.79-2.9 199.14-6.13 197.49-9.35 197.49-13.75L197.49-13.75Q197.49-18.25 199.14-21.43 200.79-24.6 203.86-26.35 206.94-28.1 211.24-28.1L211.24-28.1Q217.64-28.1 221.29-24.28 224.94-20.45 224.94-13.75L224.94-13.75Q224.94-9.35 223.29-6.13 221.64-2.9 218.56-1.15 215.49 0.6 211.19 0.6ZM211.24-3.6L211.24-3.6Q215.24-3.6 217.56-6.33 219.89-9.05 219.89-13.75L219.89-13.75Q219.89-18.5 217.56-21.2 215.24-23.9 211.24-23.9L211.24-23.9Q207.19-23.9 204.89-21.2 202.59-18.5 202.59-13.75L202.59-13.75Q202.59-9.05 204.89-6.33 207.19-3.6 211.24-3.6ZM277.73 0L272.68 0 272.68-30.6Q272.68-33.15 273.63-35.05 274.58-36.95 276.46-38.05 278.33-39.15 281.08-39.15L281.08-39.15 289.28-39.15 289.28-35.05 282.58-35.05Q281.23-35.05 280.11-34.7 278.98-34.35 278.36-33.43 277.73-32.5 277.73-30.75L277.73-30.75 277.73 0ZM286.38-23.4L266.18-23.4 266.18-27.5 286.38-27.5 286.38-23.4ZM288.73 0L263.93 0 263.93-4.1 288.73-4.1 288.73 0ZM311.53 0L306.48 0 306.48-27.5 311.53-27.5 311.53 0ZM320.98 0L296.33 0 296.33-4.1 320.98-4.1 320.98 0ZM308.98-23.4L299.98-23.4 299.98-27.5 308.98-27.5 308.98-23.4ZM311.78-32.2L306.13-32.2 306.13-37.65 311.78-37.65 311.78-32.2ZM353.68 0L348.63 0 348.63-17.35Q348.63-20.25 346.98-22.03 345.33-23.8 342.68-23.8L342.68-23.8Q339.63-23.8 337.25-21.58 334.88-19.35 333.48-14.65L333.48-14.65 332.68-20.3Q334.23-24.2 337.15-26.15 340.08-28.1 343.53-28.1L343.53-28.1Q346.63-28.1 348.9-26.78 351.18-25.45 352.43-23.1 353.68-20.75 353.68-17.55L353.68-17.55 353.68 0ZM334.08 0L329.03 0 329.03-27.5 333.83-27.5 334.08-21.3 334.08 0ZM372.27-28.1L372.27-28.1Q375.12-28.1 377.47-26.98 379.82-25.85 381.27-23.85L381.27-23.85 381.27-36.75 386.27-36.75 386.27 0 381.52 0 381.37-3.85Q379.92-1.85 377.55-0.63 375.17 0.6 372.27 0.6L372.27 0.6Q368.62 0.6 365.82-1.25 363.02-3.1 361.45-6.35 359.87-9.6 359.87-13.75L359.87-13.75Q359.87-17.95 361.45-21.2 363.02-24.45 365.82-26.28 368.62-28.1 372.27-28.1ZM373.37-3.65L373.37-3.65Q376.07-3.65 378.17-5.18 380.27-6.7 381.27-9.3L381.27-9.3 381.27-18.25Q380.27-20.9 378.17-22.38 376.07-23.85 373.37-23.85L373.37-23.85Q370.87-23.85 368.97-22.58 367.07-21.3 366-19.03 364.92-16.75 364.92-13.75L364.92-13.75Q364.92-10.8 366-8.53 367.07-6.25 368.97-4.95 370.87-3.65 373.37-3.65ZM451.07 0L440.97 0Q438.42 0 436.62-1.03 434.82-2.05 433.92-3.95 433.02-5.85 433.02-8.4L433.02-8.4 433.02-32.7 438.07-35.45 438.07-8.4Q438.07-7.2 438.42-6.2 438.77-5.2 439.79-4.65 440.82-4.1 442.82-4.1L442.82-4.1 451.07-4.1 451.07 0ZM446.67-23.4L426.52-23.4 426.52-27.5 446.67-27.5 446.67-23.4ZM483.67 0L478.62 0 478.62-17.3Q478.62-20.25 476.97-22.03 475.32-23.8 472.67-23.8L472.67-23.8Q469.62-23.8 467.24-21.58 464.87-19.35 463.47-14.65L463.47-14.65 462.67-20.25Q464.22-24.2 467.14-26.15 470.07-28.1 473.52-28.1L473.52-28.1Q476.62-28.1 478.89-26.78 481.17-25.45 482.42-23.08 483.67-20.7 483.67-17.5L483.67-17.5 483.67 0ZM464.07 0L459.02 0 459.02-36.8 464.07-36.8 464.07 0ZM504.01 0.6L504.01 0.6Q499.76 0.6 496.66-1.13 493.56-2.85 491.91-6.08 490.26-9.3 490.26-13.8L490.26-13.8Q490.26-18.3 491.94-21.5 493.61-24.7 496.74-26.4 499.86-28.1 504.21-28.1L504.21-28.1Q510.86-28.1 514.11-24.43 517.36-20.75 516.96-14.35L516.96-14.35 494.26-14.35 494.31-18.15 511.81-18.1Q511.61-20.75 509.51-22.35 507.41-23.95 504.21-23.95L504.21-23.95Q499.91-23.95 497.61-21.25 495.31-18.55 495.31-13.6L495.31-13.6Q495.31-10.65 496.34-8.38 497.36-6.1 499.31-4.85 501.26-3.6 504.01-3.6L504.01-3.6Q507.26-3.6 509.44-5.15 511.61-6.7 512.11-9.35L512.11-9.35 517.16-9.35Q516.51-4.7 513.01-2.05 509.51 0.6 504.01 0.6ZM570.31-28.1L570.31-28.1Q574.01-28.1 576.78-26.28 579.56-24.45 581.16-21.2 582.76-17.95 582.76-13.75L582.76-13.75Q582.76-9.6 581.16-6.35 579.56-3.1 576.78-1.25 574.01 0.6 570.31 0.6L570.31 0.6Q567.51 0.6 565.18-0.55 562.86-1.7 561.36-3.7L561.36-3.7 561.36 8.9 556.31 8.9 556.31-27.5 561.11-27.5 561.26-23.75Q562.76-25.75 565.11-26.93 567.46-28.1 570.31-28.1ZM569.21-3.65L569.21-3.65Q571.76-3.65 573.66-4.95 575.56-6.25 576.61-8.53 577.66-10.8 577.66-13.75L577.66-13.75Q577.66-16.75 576.61-19.03 575.56-21.3 573.66-22.58 571.76-23.85 569.21-23.85L569.21-23.85Q566.61-23.85 564.48-22.38 562.36-20.9 561.36-18.35L561.36-18.35 561.36-9.25Q562.36-6.65 564.48-5.15 566.61-3.65 569.21-3.65ZM601.5 0.6L601.5 0.6Q597.25 0.6 594.15-1.13 591.05-2.85 589.4-6.08 587.75-9.3 587.75-13.8L587.75-13.8Q587.75-18.3 589.43-21.5 591.1-24.7 594.23-26.4 597.35-28.1 601.7-28.1L601.7-28.1Q608.35-28.1 611.6-24.43 614.85-20.75 614.45-14.35L614.45-14.35 591.75-14.35 591.8-18.15 609.3-18.1Q609.1-20.75 607-22.35 604.9-23.95 601.7-23.95L601.7-23.95Q597.4-23.95 595.1-21.25 592.8-18.55 592.8-13.6L592.8-13.6Q592.8-10.65 593.83-8.38 594.85-6.1 596.8-4.85 598.75-3.6 601.5-3.6L601.5-3.6Q604.75-3.6 606.93-5.15 609.1-6.7 609.6-9.35L609.6-9.35 614.65-9.35Q614-4.7 610.5-2.05 607 0.6 601.5 0.6ZM646.25-15.7L641.2-15.7 641.2-19Q641.2-21.15 639.9-22.48 638.6-23.8 636.15-23.8L636.15-23.8Q633.05-23.8 630.6-21.48 628.15-19.15 626.7-14.4L626.7-14.4 626-19.5Q627.1-22.35 628.68-24.25 630.25-26.15 632.33-27.13 634.4-28.1 636.9-28.1L636.9-28.1Q641.05-28.1 643.65-25.73 646.25-23.35 646.25-19L646.25-19 646.25-15.7ZM627.65 0L622.6 0 622.6-27.5 627.35-27.5 627.65-21.25 627.65 0ZM667.7 0L662.65 0 662.65-30.6Q662.65-33.15 663.6-35.05 664.55-36.95 666.42-38.05 668.3-39.15 671.05-39.15L671.05-39.15 679.25-39.15 679.25-35.05 672.55-35.05Q671.2-35.05 670.07-34.7 668.95-34.35 668.32-33.43 667.7-32.5 667.7-30.75L667.7-30.75 667.7 0ZM676.35-23.4L656.15-23.4 656.15-27.5 676.35-27.5 676.35-23.4ZM678.7 0L653.9 0 653.9-4.1 678.7-4.1 678.7 0ZM699 0.6L699 0.6Q694.75 0.6 691.65-1.13 688.55-2.85 686.9-6.08 685.25-9.3 685.25-13.8L685.25-13.8Q685.25-18.3 686.92-21.5 688.6-24.7 691.72-26.4 694.85-28.1 699.2-28.1L699.2-28.1Q705.85-28.1 709.1-24.43 712.35-20.75 711.95-14.35L711.95-14.35 689.25-14.35 689.3-18.15 706.8-18.1Q706.6-20.75 704.5-22.35 702.4-23.95 699.2-23.95L699.2-23.95Q694.9-23.95 692.6-21.25 690.3-18.55 690.3-13.6L690.3-13.6Q690.3-10.65 691.32-8.38 692.35-6.1 694.3-4.85 696.25-3.6 699-3.6L699-3.6Q702.25-3.6 704.42-5.15 706.6-6.7 707.1-9.35L707.1-9.35 712.15-9.35Q711.5-4.7 708-2.05 704.5 0.6 699 0.6ZM731.99 0.6L731.99 0.6Q727.74 0.6 724.62-1.18 721.49-2.95 719.79-6.18 718.09-9.4 718.09-13.75L718.09-13.75Q718.09-18.2 719.84-21.43 721.59-24.65 724.74-26.38 727.89-28.1 732.09-28.1L732.09-28.1Q735.44-28.1 738.12-26.88 740.79-25.65 742.47-23.4 744.14-21.15 744.39-18.05L744.39-18.05 739.34-18.05Q738.94-20.85 736.97-22.38 734.99-23.9 732.09-23.9L732.09-23.9Q729.39-23.9 727.39-22.68 725.39-21.45 724.29-19.2 723.19-16.95 723.19-13.75L723.19-13.75Q723.19-9 725.62-6.3 728.04-3.6 731.99-3.6L731.99-3.6Q733.79-3.6 735.34-4.3 736.89-5 737.99-6.33 739.09-7.65 739.49-9.4L739.49-9.4 744.59-9.4Q744.09-6.3 742.32-4.08 740.54-1.85 737.87-0.63 735.19 0.6 731.99 0.6ZM776.04 0L765.94 0Q763.39 0 761.59-1.03 759.79-2.05 758.89-3.95 757.99-5.85 757.99-8.4L757.99-8.4 757.99-32.7 763.04-35.45 763.04-8.4Q763.04-7.2 763.39-6.2 763.74-5.2 764.77-4.65 765.79-4.1 767.79-4.1L767.79-4.1 776.04-4.1 776.04 0ZM771.64-23.4L751.49-23.4 751.49-27.5 771.64-27.5 771.64-23.4ZM836.34-23.55L836.34-23.55 836.49-27.5 841.24-27.5 841.24-3Q841.24 3.1 837.96 6.3 834.69 9.5 828.09 9.5L828.09 9.5Q824.44 9.5 821.76 8.5 819.09 7.5 817.56 5.53 816.04 3.55 815.84 0.6L815.84 0.6 821.09 0.6Q821.34 2.85 823.11 4.08 824.89 5.3 828.34 5.3L828.34 5.3Q832.24 5.3 834.21 3.3 836.19 1.3 836.19-2.4L836.19-2.4 836.19-6.05Q834.79-3.95 832.46-2.75 830.14-1.55 827.29-1.55L827.29-1.55Q823.74-1.55 821.01-3.25 818.29-4.95 816.74-7.98 815.19-11 815.19-14.8L815.19-14.8Q815.19-18.9 816.79-21.88 818.39-24.85 821.19-26.48 823.99-28.1 827.54-28.1L827.54-28.1Q830.39-28.1 832.69-26.85 834.99-25.6 836.34-23.55ZM828.39-5.5L828.39-5.5Q831.09-5.5 833.21-7.08 835.34-8.65 836.19-11.35L836.19-11.35 836.19-18.3Q835.34-21 833.21-22.58 831.09-24.15 828.39-24.15L828.39-24.15Q825.94-24.15 824.11-22.95 822.29-21.75 821.26-19.68 820.24-17.6 820.24-14.85L820.24-14.85Q820.24-12.15 821.26-10.03 822.29-7.9 824.11-6.7 825.94-5.5 828.39-5.5ZM863.98 0L858.93 0 858.93-27.5 863.98-27.5 863.98 0ZM873.43 0L848.78 0 848.78-4.1 873.43-4.1 873.43 0ZM861.43-23.4L852.43-23.4 852.43-27.5 861.43-27.5 861.43-23.4ZM864.23-32.2L858.58-32.2 858.58-37.65 864.23-37.65 864.23-32.2ZM895.18 0L890.13 0 890.13-30.6Q890.13-33.15 891.08-35.05 892.03-36.95 893.91-38.05 895.78-39.15 898.53-39.15L898.53-39.15 906.73-39.15 906.73-35.05 900.03-35.05Q898.68-35.05 897.56-34.7 896.43-34.35 895.81-33.43 895.18-32.5 895.18-30.75L895.18-30.75 895.18 0ZM903.83-23.4L883.63-23.4 883.63-27.5 903.83-27.5 903.83-23.4ZM906.18 0L881.38 0 881.38-4.1 906.18-4.1 906.18 0ZM938.53 0L928.43 0Q925.88 0 924.08-1.03 922.28-2.05 921.38-3.95 920.48-5.85 920.48-8.4L920.48-8.4 920.48-32.7 925.53-35.45 925.53-8.4Q925.53-7.2 925.88-6.2 926.23-5.2 927.25-4.65 928.28-4.1 930.28-4.1L930.28-4.1 938.53-4.1 938.53 0ZM934.13-23.4L913.98-23.4 913.98-27.5 934.13-27.5 934.13-23.4Z" opacity="1" transform="matrix(1,0,0,1,0,0)" fill="#f6bc00" class="slogan-text-1" data-fill-palette-color="quaternary" id="text-1"></path></svg></g></svg></g></svg></g></svg></g><g transform="matrix(1,0,0,1,68.89268310340974,0)"><svg viewBox="0 0 75.37307502033764 72.67056398386407" height="72.67056398386407" width="75.37307502033764"><g><svg xmlns="http://www.w3.org/2000/svg" xmlns:xlink="http://www.w3.org/1999/xlink" version="1.1" x="0" y="0" viewBox="29.716979084277565 25.899225014265518 47.75503784331248 46.042774985734475" enable-background="new 0 0 100 100" xml:space="preserve" height="72.67056398386407" width="75.37307502033764" class="icon-icon-0" data-fill-palette-color="quaternary" id="icon-0"><g fill="#f6bc00" data-fill-palette-color="quaternary"><g fill="#f6bc00" data-fill-palette-color="quaternary"><g fill="#f6bc00" data-fill-palette-color="quaternary"><g fill="#f6bc00" data-fill-palette-color="quaternary"><g fill="#f6bc00" data-fill-palette-color="quaternary"><g fill="#f6bc00" data-fill-palette-color="quaternary"><g fill="#f6bc00" data-fill-palette-color="quaternary"><path d="M53.83 35.595A58 58 0 0 1 51.719 35.839V46.454H29.717V37.933A2.404 2.404 0 0 1 32.131 35.519H42.158C39.465 34.955 37.445 33.802 37.371 31.673 37.295 29.165 40.123 25.111 44.252 26.036 48.514 26.995 51.492 30.296 53.773 33.124 56.074 30.241 59.335 26.526 63.783 25.94 67.5 25.469 70.572 29.184 70.176 31.635 69.838 33.783 67.781 34.953 65.16 35.518H75.058A2.405 2.405 0 0 1 77.472 37.932V46.453H55.471V35.763A25 25 0 0 1 53.944 35.577V35.557H53.848L53.868 35.577C53.867 35.578 53.848 35.595 53.83 35.595M67.197 32.41C68.611 30.599 65.84 26.828 62.861 28.222 60.013 29.562 57.959 31.747 56.187 33.898 57.712 34.031 59.259 34.066 60.787 33.992 62.654 33.916 66.104 33.785 67.197 32.41M40.35 32.427C42.329 34.464 47.758 34.314 51.399 33.935 49.682 31.789 47.571 29.392 44.706 28.259 42.649 27.448 41.444 28.318 40.577 29.751 40.105 30.56 39.598 31.636 40.35 32.427" fill="#f6bc00" data-fill-palette-color="quaternary"></path><path d="M75.436 48.171V69.737A2.19 2.19 0 0 1 73.248 71.942H55.32V48.171z" fill="#f6bc00" data-fill-palette-color="quaternary"></path><path d="M53.867 35.578L53.847 35.558H53.943V35.578z" fill="#f6bc00" data-fill-palette-color="quaternary"></path><path d="M51.869 48.171V71.942H33.939A2.19 2.19 0 0 1 31.751 69.737V48.171z" fill="#f6bc00" data-fill-palette-color="quaternary"></path></g></g></g></g></g></g></g></svg></g></svg></g><g></g></svg></g></svg></g></svg></g></svg></g><defs></defs></svg><rect width="342.85155851775386" height="342.85155851775386" fill="none" stroke="none" visibility="hidden"></rect></g></svg></g></svg>