<svg xmlns="http://www.w3.org/2000/svg" version="1.1" xmlns:xlink="http://www.w3.org/1999/xlink" xmlns:svgjs="http://svgjs.dev/svgjs" width="2000" height="494" viewBox="0 0 2000 494"><g transform="matrix(1,0,0,1,-1.2121212121212466,-1.0837211283795511)"><svg viewBox="0 0 396 98" data-background-color="#f6bc00" preserveAspectRatio="xMidYMid meet" height="494" width="2000" xmlns="http://www.w3.org/2000/svg" xmlns:xlink="http://www.w3.org/1999/xlink"><g id="tight-bounds" transform="matrix(1,0,0,1,0.2400000000000091,0.2149892117028287)"><svg viewBox="0 0 395.52 97.57002157659436" height="97.57002157659436" width="395.52"><g><svg viewBox="0 0 395.52 97.57002157659436" height="97.57002157659436" width="395.52"><g><svg viewBox="0 0 395.52 97.57002157659436" height="97.57002157659436" width="395.52"><g><svg viewBox="0 0 395.52 97.57002157659436" height="97.57002157659436" width="395.52"><g><svg viewBox="0 0 395.52 97.57002157659436" height="97.57002157659436" width="395.52"><g id="textblocktransform"><svg viewBox="0 0 395.52 97.57002157659436" height="97.57002157659436" width="395.52" id="textblock"><g><svg viewBox="0 0 395.52 62.33044762344254" height="62.33044762344254" width="395.52"><g transform="matrix(1,0,0,1,0,0)"><svg width="395.52" viewBox="2.7 -33.5 216.68 34.15" height="62.33044762344254" data-palette-color="#2d3b41"><path d="M28.5-14.35L28.5-14.35 28.5-3.5Q28.5-2.6 27.98-1.98 27.45-1.35 26.4-0.85L26.4-0.85Q25.15-0.2 22.95 0.23 20.75 0.65 18.5 0.65L18.5 0.65Q13.85 0.65 10.28-1.05 6.7-2.75 4.7-6.25 2.7-9.75 2.7-15.15L2.7-15.15Q2.7-20.5 4.78-24.03 6.85-27.55 10.3-29.3 13.75-31.05 17.85-31.05L17.85-31.05Q20.7-31.05 22.85-30.45 25-29.85 26.2-28.95 27.4-28.05 27.4-27.1L27.4-27.1Q27.4-26.45 27-25.93 26.6-25.4 26.05-25.15L26.05-25.15Q24.7-26.05 22.85-26.83 21-27.6 18.1-27.6L18.1-27.6Q14.95-27.6 12.4-26.2 9.85-24.8 8.38-22.03 6.9-19.25 6.9-15.15L6.9-15.15Q6.9-10.85 8.43-8.13 9.95-5.4 12.6-4.1 15.25-2.8 18.55-2.8L18.55-2.8Q20.35-2.8 21.95-3.1 23.55-3.4 24.45-3.85L24.45-3.85 24.45-13.05 16.9-13.05Q16.75-13.3 16.6-13.73 16.45-14.15 16.45-14.65L16.45-14.65Q16.45-15.5 16.85-15.98 17.25-16.45 18-16.45L18-16.45 26.35-16.45Q27.25-16.45 27.88-15.88 28.5-15.3 28.5-14.35ZM35.35-30.4L35.35-30.4 35.35-30.4Q35.35-31.45 36.1-32.18 36.85-32.9 37.95-32.9L37.95-32.9Q39.1-32.9 39.8-32.18 40.5-31.45 40.5-30.4L40.5-30.4Q40.5-29.35 39.8-28.63 39.1-27.9 37.95-27.9L37.95-27.9Q36.85-27.9 36.1-28.63 35.35-29.35 35.35-30.4ZM35.95-1.55L35.95-13.2 39.95-13.2 39.95-0.1Q39.7 0 39.2 0.13 38.7 0.25 38.1 0.25L38.1 0.25Q37.05 0.25 36.5-0.18 35.95-0.6 35.95-1.55L35.95-1.55ZM39.95-21.5L39.95-11.25 35.95-11.25 35.95-23Q36.2-23.1 36.72-23.23 37.25-23.35 37.85-23.35L37.85-23.35Q38.9-23.35 39.42-22.93 39.95-22.5 39.95-21.5L39.95-21.5ZM60.6-18.55L51.1-18.55 51.1-21.8 61.7-21.8Q61.85-21.6 62-21.18 62.15-20.75 62.15-20.2L62.15-20.2Q62.15-19.4 61.75-18.98 61.35-18.55 60.6-18.55L60.6-18.55ZM51.8-24.95L51.8-24.95 51.8-19.1 47.85-19.1 47.85-25.15Q47.85-28.1 48.92-29.93 50-31.75 52.02-32.63 54.05-33.5 56.85-33.5L56.85-33.5Q59.7-33.5 61.32-32.75 62.95-32 62.95-30.9L62.95-30.9Q62.95-30.35 62.72-29.9 62.5-29.45 62.1-29.05L62.1-29.05Q61.2-29.55 59.85-29.88 58.5-30.2 57.25-30.2L57.25-30.2Q54.2-30.2 53-28.95 51.8-27.7 51.8-24.95ZM47.85-1.55L47.85-21.3 51.85-21.3 51.85-0.1Q51.6 0 51.1 0.13 50.6 0.25 50 0.25L50 0.25Q48.95 0.25 48.4-0.18 47.85-0.6 47.85-1.55L47.85-1.55ZM67.74-6.05L67.74-13.2 71.74-13.2 71.74-6.3Q71.74-4.3 72.89-3.48 74.04-2.65 76.04-2.65L76.04-2.65Q76.89-2.65 77.94-2.95 78.99-3.25 79.69-3.65L79.69-3.65Q79.99-3.35 80.24-2.9 80.49-2.45 80.49-1.85L80.49-1.85Q80.49-0.75 79.19-0.05 77.89 0.65 75.59 0.65L75.59 0.65Q72.09 0.65 69.92-0.9 67.74-2.45 67.74-6.05L67.74-6.05ZM78.89-19.3L69.79-19.3 69.79-22.6 79.94-22.6Q80.09-22.4 80.24-21.95 80.39-21.5 80.39-21L80.39-21Q80.39-20.2 79.99-19.75 79.59-19.3 78.89-19.3L78.89-19.3ZM71.74-28.35L71.74-11.7 67.74-11.7 67.74-29.8Q67.99-29.9 68.52-30.03 69.04-30.15 69.64-30.15L69.64-30.15Q70.69-30.15 71.22-29.73 71.74-29.3 71.74-28.35L71.74-28.35ZM91.04-30L91.04-12.3 86.99-12.35 86.99-28.2Q86.99-29.2 87.59-29.8 88.19-30.4 89.19-30.4L89.19-30.4Q89.74-30.4 90.29-30.25 90.84-30.1 91.04-30L91.04-30ZM102.94-13.1L89.19-13.1 89.19-16.55 104.04-16.55Q104.19-16.3 104.34-15.88 104.49-15.45 104.49-14.95L104.49-14.95Q104.49-14.15 104.09-13.63 103.69-13.1 102.94-13.1L102.94-13.1ZM104.69-26.95L89.19-26.95 89.19-30.4 105.79-30.4Q105.94-30.2 106.09-29.75 106.24-29.3 106.24-28.8L106.24-28.8Q106.24-28 105.84-27.48 105.44-26.95 104.69-26.95L104.69-26.95ZM86.99-1.55L86.99-17.8 91.09-17.8 91.09-0.05Q90.84 0 90.32 0.13 89.79 0.25 89.24 0.25L89.24 0.25Q88.14 0.25 87.57-0.2 86.99-0.65 86.99-1.55L86.99-1.55ZM111.79-30.4L111.79-30.4 111.79-30.4Q111.79-31.45 112.54-32.18 113.29-32.9 114.39-32.9L114.39-32.9Q115.54-32.9 116.24-32.18 116.94-31.45 116.94-30.4L116.94-30.4Q116.94-29.35 116.24-28.63 115.54-27.9 114.39-27.9L114.39-27.9Q113.29-27.9 112.54-28.63 111.79-29.35 111.79-30.4ZM112.39-1.55L112.39-13.2 116.39-13.2 116.39-0.1Q116.14 0 115.64 0.13 115.14 0.25 114.54 0.25L114.54 0.25Q113.49 0.25 112.94-0.18 112.39-0.6 112.39-1.55L112.39-1.55ZM116.39-21.5L116.39-11.25 112.39-11.25 112.39-23Q112.64-23.1 113.16-23.23 113.69-23.35 114.29-23.35L114.29-23.35Q115.34-23.35 115.86-22.93 116.39-22.5 116.39-21.5L116.39-21.5ZM144.19-15.25L144.19-15.25 144.19-10.15 140.19-10.15 140.19-15.05Q140.19-17.85 138.61-19.15 137.04-20.45 134.39-20.45L134.39-20.45Q132.39-20.45 130.84-19.95 129.29-19.45 128.19-18.8L128.19-18.8 128.19-10.15 124.19-10.15 124.19-18.6Q124.19-19.65 124.61-20.33 125.04-21 126.09-21.65L126.09-21.65Q127.39-22.4 129.54-23.08 131.69-23.75 134.39-23.75L134.39-23.75Q138.94-23.75 141.56-21.68 144.19-19.6 144.19-15.25ZM124.19-1.55L124.19-12.9 128.19-12.9 128.19-0.1Q127.94 0 127.44 0.13 126.94 0.25 126.34 0.25L126.34 0.25Q125.29 0.25 124.74-0.18 124.19-0.6 124.19-1.55L124.19-1.55ZM140.19-1.55L140.19-12.9 144.19-12.9 144.19-0.1Q143.94 0 143.41 0.13 142.89 0.25 142.34 0.25L142.34 0.25Q141.24 0.25 140.71-0.18 140.19-0.6 140.19-1.55L140.19-1.55ZM167.43-3.95L167.43-3.95 167.43-20.75 171.43-20.8 171.43-3.8Q171.43-2.85 171.01-2.27 170.58-1.7 169.68-1.15L169.68-1.15Q168.68-0.5 166.98 0.08 165.28 0.65 162.88 0.65L162.88 0.65Q159.28 0.65 156.46-0.6 153.63-1.85 152.01-4.53 150.38-7.2 150.38-11.45L150.38-11.45Q150.38-15.8 151.91-18.5 153.43-21.2 156.03-22.48 158.63-23.75 161.73-23.75L161.73-23.75Q163.68-23.75 165.43-23.2 167.18-22.65 168.18-21.85L168.18-21.85 168.18-18.15Q167.23-19.1 165.71-19.78 164.18-20.45 162.13-20.45L162.13-20.45Q160.08-20.45 158.33-19.58 156.58-18.7 155.53-16.7 154.48-14.7 154.48-11.35L154.48-11.35Q154.48-6.8 156.68-4.73 158.88-2.65 162.53-2.65L162.53-2.65Q164.28-2.65 165.41-3.03 166.53-3.4 167.43-3.95ZM171.43-30.95L171.43-19.8 167.43-19.75 167.43-32.4Q167.68-32.5 168.21-32.63 168.73-32.75 169.28-32.75L169.28-32.75Q170.38-32.75 170.91-32.33 171.43-31.9 171.43-30.95L171.43-30.95ZM197.28-11.35L180.48-9 180.28-12.15 195.38-14.2Q195.18-16.95 193.48-18.73 191.78-20.5 188.78-20.5L188.78-20.5Q185.68-20.5 183.66-18.28 181.63-16.05 181.63-11.9L181.63-11.9 181.63-10.8Q181.98-6.8 184.25-4.73 186.53-2.65 190.48-2.65L190.48-2.65Q192.58-2.65 194.28-3.35 195.98-4.05 196.98-4.85L196.98-4.85Q197.53-4.5 197.86-4.03 198.18-3.55 198.18-2.95L198.18-2.95Q198.18-2 197.11-1.18 196.03-0.35 194.25 0.15 192.48 0.65 190.28 0.65L190.28 0.65Q186.43 0.65 183.6-0.75 180.78-2.15 179.25-4.93 177.73-7.7 177.73-11.7L177.73-11.7Q177.73-14.55 178.56-16.78 179.38-19 180.85-20.55 182.33-22.1 184.38-22.93 186.43-23.75 188.83-23.75L188.83-23.75Q191.88-23.75 194.21-22.45 196.53-21.15 197.86-18.82 199.18-16.5 199.18-13.5L199.18-13.5Q199.18-12.4 198.68-11.93 198.18-11.45 197.28-11.35L197.28-11.35ZM208.98-18.8L208.98-18.8 208.98-10.9 204.98-10.9 204.98-18.5Q204.98-19.65 205.4-20.33 205.83-21 206.83-21.65L206.83-21.65Q208.13-22.5 210.38-23.13 212.63-23.75 215.38-23.75L215.38-23.75Q219.38-23.75 219.38-21.75L219.38-21.75Q219.38-21.25 219.23-20.83 219.08-20.4 218.83-20.1L218.83-20.1Q218.33-20.2 217.53-20.3 216.73-20.4 215.93-20.4L215.93-20.4Q213.63-20.4 211.88-19.93 210.13-19.45 208.98-18.8ZM204.98-1.55L204.98-13.2 208.98-12.6 208.98-0.1Q208.73 0 208.23 0.13 207.73 0.25 207.13 0.25L207.13 0.25Q206.08 0.25 205.53-0.18 204.98-0.6 204.98-1.55L204.98-1.55Z" opacity="1" transform="matrix(1,0,0,1,0,0)" fill="#2d3b41" class="wordmark-text-0" data-fill-palette-color="primary" id="text-0"></path></svg></g></svg></g><g transform="matrix(1,0,0,1,0,77.04517037659436)"><svg viewBox="0 0 395.52 20.5248512" height="20.5248512" width="395.52"><g transform="matrix(1,0,0,1,0,0)"><svg width="395.52" viewBox="2.35 -39.15 936.25 48.65" height="20.5248512" data-palette-color="#2d3b41"><path d="M18.9 0L13.6 0 13.6-30.4 2.35-30.4 2.35-34.9 30.15-34.9 30.15-30.4 18.9-30.4 18.9 0ZM51.55 0L46.5 0 46.5-27.5 51.55-27.5 51.55 0ZM61 0L36.35 0 36.35-4.1 61-4.1 61 0ZM49-23.4L40-23.4 40-27.5 49-27.5 49-23.4ZM51.8-32.2L46.15-32.2 46.15-37.65 51.8-37.65 51.8-32.2ZM95 0L90.35 0 90.35-20.1Q90.35-21.9 89.72-22.9 89.1-23.9 87.8-23.9L87.8-23.9Q86-23.9 84.58-21.6 83.15-19.3 82.6-14.35L82.6-14.35 82.15-18.6Q82.3-23.1 84.28-25.6 86.25-28.1 89.15-28.1L89.15-28.1Q91.85-28.1 93.42-26.13 95-24.15 95-20.5L95-20.5 95 0ZM72.15 0L67.5 0 67.5-27.5 71.95-27.5 72.15-22.15 72.15 0ZM83.55 0L78.95 0 78.95-20.1Q78.95-22 78.28-22.95 77.6-23.9 76.25-23.9L76.25-23.9Q74.35-23.9 73-21.5 71.65-19.1 71.1-14.35L71.1-14.35 71-18.75Q71.1-21.7 72.05-23.8 73-25.9 74.5-27 76-28.1 77.7-28.1L77.7-28.1Q80.5-28.1 82.03-26.08 83.55-24.05 83.55-20.55L83.55-20.55 83.55 0ZM114.05 0.6L114.05 0.6Q109.8 0.6 106.7-1.13 103.6-2.85 101.95-6.08 100.3-9.3 100.3-13.8L100.3-13.8Q100.3-18.3 101.97-21.5 103.65-24.7 106.78-26.4 109.9-28.1 114.25-28.1L114.25-28.1Q120.9-28.1 124.15-24.43 127.4-20.75 127-14.35L127-14.35 104.3-14.35 104.35-18.15 121.85-18.1Q121.65-20.75 119.55-22.35 117.45-23.95 114.25-23.95L114.25-23.95Q109.95-23.95 107.65-21.25 105.35-18.55 105.35-13.6L105.35-13.6Q105.35-10.65 106.38-8.38 107.4-6.1 109.35-4.85 111.3-3.6 114.05-3.6L114.05-3.6Q117.3-3.6 119.47-5.15 121.65-6.7 122.15-9.35L122.15-9.35 127.2-9.35Q126.55-4.7 123.05-2.05 119.55 0.6 114.05 0.6ZM191.1 0L181 0Q178.45 0 176.65-1.03 174.85-2.05 173.95-3.95 173.05-5.85 173.05-8.4L173.05-8.4 173.05-32.7 178.1-35.45 178.1-8.4Q178.1-7.2 178.45-6.2 178.8-5.2 179.82-4.65 180.85-4.1 182.85-4.1L182.85-4.1 191.1-4.1 191.1 0ZM186.7-23.4L166.55-23.4 166.55-27.5 186.7-27.5 186.7-23.4ZM211.2 0.6L211.2 0.6Q206.95 0.6 203.88-1.15 200.8-2.9 199.15-6.13 197.5-9.35 197.5-13.75L197.5-13.75Q197.5-18.25 199.15-21.43 200.8-24.6 203.88-26.35 206.95-28.1 211.25-28.1L211.25-28.1Q217.65-28.1 221.3-24.28 224.95-20.45 224.95-13.75L224.95-13.75Q224.95-9.35 223.3-6.13 221.65-2.9 218.57-1.15 215.5 0.6 211.2 0.6ZM211.25-3.6L211.25-3.6Q215.25-3.6 217.57-6.33 219.9-9.05 219.9-13.75L219.9-13.75Q219.9-18.5 217.57-21.2 215.25-23.9 211.25-23.9L211.25-23.9Q207.2-23.9 204.9-21.2 202.6-18.5 202.6-13.75L202.6-13.75Q202.6-9.05 204.9-6.33 207.2-3.6 211.25-3.6ZM277.75 0L272.7 0 272.7-30.6Q272.7-33.15 273.65-35.05 274.6-36.95 276.48-38.05 278.35-39.15 281.1-39.15L281.1-39.15 289.3-39.15 289.3-35.05 282.6-35.05Q281.25-35.05 280.13-34.7 279-34.35 278.38-33.43 277.75-32.5 277.75-30.75L277.75-30.75 277.75 0ZM286.4-23.4L266.2-23.4 266.2-27.5 286.4-27.5 286.4-23.4ZM288.75 0L263.95 0 263.95-4.1 288.75-4.1 288.75 0ZM311.55 0L306.5 0 306.5-27.5 311.55-27.5 311.55 0ZM321 0L296.35 0 296.35-4.1 321-4.1 321 0ZM309-23.4L300-23.4 300-27.5 309-27.5 309-23.4ZM311.8-32.2L306.15-32.2 306.15-37.65 311.8-37.65 311.8-32.2ZM353.7 0L348.65 0 348.65-17.35Q348.65-20.25 347-22.03 345.35-23.8 342.7-23.8L342.7-23.8Q339.65-23.8 337.27-21.58 334.9-19.35 333.5-14.65L333.5-14.65 332.7-20.3Q334.25-24.2 337.18-26.15 340.1-28.1 343.55-28.1L343.55-28.1Q346.65-28.1 348.93-26.78 351.2-25.45 352.45-23.1 353.7-20.75 353.7-17.55L353.7-17.55 353.7 0ZM334.1 0L329.05 0 329.05-27.5 333.85-27.5 334.1-21.3 334.1 0ZM372.3-28.1L372.3-28.1Q375.15-28.1 377.5-26.98 379.85-25.85 381.3-23.85L381.3-23.85 381.3-36.75 386.3-36.75 386.3 0 381.55 0 381.4-3.85Q379.95-1.85 377.57-0.63 375.2 0.6 372.3 0.6L372.3 0.6Q368.65 0.6 365.85-1.25 363.05-3.1 361.48-6.35 359.9-9.6 359.9-13.75L359.9-13.75Q359.9-17.95 361.48-21.2 363.05-24.45 365.85-26.28 368.65-28.1 372.3-28.1ZM373.4-3.65L373.4-3.65Q376.1-3.65 378.2-5.18 380.3-6.7 381.3-9.3L381.3-9.3 381.3-18.25Q380.3-20.9 378.2-22.38 376.1-23.85 373.4-23.85L373.4-23.85Q370.9-23.85 369-22.58 367.1-21.3 366.02-19.03 364.95-16.75 364.95-13.75L364.95-13.75Q364.95-10.8 366.02-8.53 367.1-6.25 369-4.95 370.9-3.65 373.4-3.65ZM451.1 0L441 0Q438.45 0 436.65-1.03 434.85-2.05 433.95-3.95 433.05-5.85 433.05-8.4L433.05-8.4 433.05-32.7 438.1-35.45 438.1-8.4Q438.1-7.2 438.45-6.2 438.8-5.2 439.82-4.65 440.85-4.1 442.85-4.1L442.85-4.1 451.1-4.1 451.1 0ZM446.7-23.4L426.55-23.4 426.55-27.5 446.7-27.5 446.7-23.4ZM483.7 0L478.65 0 478.65-17.3Q478.65-20.25 477-22.03 475.35-23.8 472.7-23.8L472.7-23.8Q469.65-23.8 467.27-21.58 464.9-19.35 463.5-14.65L463.5-14.65 462.7-20.25Q464.25-24.2 467.18-26.15 470.1-28.1 473.55-28.1L473.55-28.1Q476.65-28.1 478.93-26.78 481.2-25.45 482.45-23.08 483.7-20.7 483.7-17.5L483.7-17.5 483.7 0ZM464.1 0L459.05 0 459.05-36.8 464.1-36.8 464.1 0ZM504.05 0.6L504.05 0.6Q499.8 0.6 496.7-1.13 493.6-2.85 491.95-6.08 490.3-9.3 490.3-13.8L490.3-13.8Q490.3-18.3 491.98-21.5 493.65-24.7 496.77-26.4 499.9-28.1 504.25-28.1L504.25-28.1Q510.9-28.1 514.15-24.43 517.4-20.75 517-14.35L517-14.35 494.3-14.35 494.35-18.15 511.85-18.1Q511.65-20.75 509.55-22.35 507.45-23.95 504.25-23.95L504.25-23.95Q499.95-23.95 497.65-21.25 495.35-18.55 495.35-13.6L495.35-13.6Q495.35-10.65 496.38-8.38 497.4-6.1 499.35-4.85 501.3-3.6 504.05-3.6L504.05-3.6Q507.3-3.6 509.48-5.15 511.65-6.7 512.15-9.35L512.15-9.35 517.2-9.35Q516.55-4.7 513.05-2.05 509.55 0.6 504.05 0.6ZM570.35-28.1L570.35-28.1Q574.05-28.1 576.83-26.28 579.6-24.45 581.2-21.2 582.8-17.95 582.8-13.75L582.8-13.75Q582.8-9.6 581.2-6.35 579.6-3.1 576.83-1.25 574.05 0.6 570.35 0.6L570.35 0.6Q567.55 0.6 565.23-0.55 562.9-1.7 561.4-3.7L561.4-3.7 561.4 8.9 556.35 8.9 556.35-27.5 561.15-27.5 561.3-23.75Q562.8-25.75 565.15-26.93 567.5-28.1 570.35-28.1ZM569.25-3.65L569.25-3.65Q571.8-3.65 573.7-4.95 575.6-6.25 576.65-8.53 577.7-10.8 577.7-13.75L577.7-13.75Q577.7-16.75 576.65-19.03 575.6-21.3 573.7-22.58 571.8-23.85 569.25-23.85L569.25-23.85Q566.65-23.85 564.52-22.38 562.4-20.9 561.4-18.35L561.4-18.35 561.4-9.25Q562.4-6.65 564.52-5.15 566.65-3.65 569.25-3.65ZM601.55 0.6L601.55 0.6Q597.3 0.6 594.2-1.13 591.1-2.85 589.45-6.08 587.8-9.3 587.8-13.8L587.8-13.8Q587.8-18.3 589.48-21.5 591.15-24.7 594.27-26.4 597.4-28.1 601.75-28.1L601.75-28.1Q608.4-28.1 611.65-24.43 614.9-20.75 614.5-14.35L614.5-14.35 591.8-14.35 591.85-18.15 609.35-18.1Q609.15-20.75 607.05-22.35 604.95-23.95 601.75-23.95L601.75-23.95Q597.45-23.95 595.15-21.25 592.85-18.55 592.85-13.6L592.85-13.6Q592.85-10.65 593.88-8.38 594.9-6.1 596.85-4.85 598.8-3.6 601.55-3.6L601.55-3.6Q604.8-3.6 606.98-5.15 609.15-6.7 609.65-9.35L609.65-9.35 614.7-9.35Q614.05-4.7 610.55-2.05 607.05 0.6 601.55 0.6ZM646.3-15.7L641.25-15.7 641.25-19Q641.25-21.15 639.95-22.48 638.65-23.8 636.2-23.8L636.2-23.8Q633.1-23.8 630.65-21.48 628.2-19.15 626.75-14.4L626.75-14.4 626.05-19.5Q627.15-22.35 628.73-24.25 630.3-26.15 632.38-27.13 634.45-28.1 636.95-28.1L636.95-28.1Q641.1-28.1 643.7-25.73 646.3-23.35 646.3-19L646.3-19 646.3-15.7ZM627.7 0L622.65 0 622.65-27.5 627.4-27.5 627.7-21.25 627.7 0ZM667.75 0L662.7 0 662.7-30.6Q662.7-33.15 663.65-35.05 664.6-36.95 666.48-38.05 668.35-39.15 671.1-39.15L671.1-39.15 679.3-39.15 679.3-35.05 672.6-35.05Q671.25-35.05 670.13-34.7 669-34.35 668.38-33.43 667.75-32.5 667.75-30.75L667.75-30.75 667.75 0ZM676.4-23.4L656.2-23.4 656.2-27.5 676.4-27.5 676.4-23.4ZM678.75 0L653.95 0 653.95-4.1 678.75-4.1 678.75 0ZM699.05 0.6L699.05 0.6Q694.8 0.6 691.7-1.13 688.6-2.85 686.95-6.08 685.3-9.3 685.3-13.8L685.3-13.8Q685.3-18.3 686.98-21.5 688.65-24.7 691.77-26.4 694.9-28.1 699.25-28.1L699.25-28.1Q705.9-28.1 709.15-24.43 712.4-20.75 712-14.35L712-14.35 689.3-14.35 689.35-18.15 706.85-18.1Q706.65-20.75 704.55-22.35 702.45-23.95 699.25-23.95L699.25-23.95Q694.95-23.95 692.65-21.25 690.35-18.55 690.35-13.6L690.35-13.6Q690.35-10.65 691.38-8.38 692.4-6.1 694.35-4.85 696.3-3.6 699.05-3.6L699.05-3.6Q702.3-3.6 704.48-5.15 706.65-6.7 707.15-9.35L707.15-9.35 712.2-9.35Q711.55-4.7 708.05-2.05 704.55 0.6 699.05 0.6ZM732.05 0.6L732.05 0.6Q727.8 0.6 724.67-1.18 721.55-2.95 719.85-6.18 718.15-9.4 718.15-13.75L718.15-13.75Q718.15-18.2 719.9-21.43 721.65-24.65 724.8-26.38 727.95-28.1 732.15-28.1L732.15-28.1Q735.5-28.1 738.17-26.88 740.85-25.65 742.52-23.4 744.2-21.15 744.45-18.05L744.45-18.05 739.4-18.05Q739-20.85 737.02-22.38 735.05-23.9 732.15-23.9L732.15-23.9Q729.45-23.9 727.45-22.68 725.45-21.45 724.35-19.2 723.25-16.95 723.25-13.75L723.25-13.75Q723.25-9 725.67-6.3 728.1-3.6 732.05-3.6L732.05-3.6Q733.85-3.6 735.4-4.3 736.95-5 738.05-6.33 739.15-7.65 739.55-9.4L739.55-9.4 744.65-9.4Q744.15-6.3 742.38-4.08 740.6-1.85 737.92-0.63 735.25 0.6 732.05 0.6ZM776.1 0L766 0Q763.45 0 761.65-1.03 759.85-2.05 758.95-3.95 758.05-5.85 758.05-8.4L758.05-8.4 758.05-32.7 763.1-35.45 763.1-8.4Q763.1-7.2 763.45-6.2 763.8-5.2 764.83-4.65 765.85-4.1 767.85-4.1L767.85-4.1 776.1-4.1 776.1 0ZM771.7-23.4L751.55-23.4 751.55-27.5 771.7-27.5 771.7-23.4ZM836.4-23.55L836.4-23.55 836.55-27.5 841.3-27.5 841.3-3Q841.3 3.1 838.02 6.3 834.75 9.5 828.15 9.5L828.15 9.5Q824.5 9.5 821.83 8.5 819.15 7.5 817.63 5.53 816.1 3.55 815.9 0.6L815.9 0.6 821.15 0.6Q821.4 2.85 823.17 4.08 824.95 5.3 828.4 5.3L828.4 5.3Q832.3 5.3 834.27 3.3 836.25 1.3 836.25-2.4L836.25-2.4 836.25-6.05Q834.85-3.95 832.52-2.75 830.2-1.55 827.35-1.55L827.35-1.55Q823.8-1.55 821.08-3.25 818.35-4.95 816.8-7.98 815.25-11 815.25-14.8L815.25-14.8Q815.25-18.9 816.85-21.88 818.45-24.85 821.25-26.48 824.05-28.1 827.6-28.1L827.6-28.1Q830.45-28.1 832.75-26.85 835.05-25.6 836.4-23.55ZM828.45-5.5L828.45-5.5Q831.15-5.5 833.27-7.08 835.4-8.65 836.25-11.35L836.25-11.35 836.25-18.3Q835.4-21 833.27-22.58 831.15-24.15 828.45-24.15L828.45-24.15Q826-24.15 824.17-22.95 822.35-21.75 821.33-19.68 820.3-17.6 820.3-14.85L820.3-14.85Q820.3-12.15 821.33-10.03 822.35-7.9 824.17-6.7 826-5.5 828.45-5.5ZM864.05 0L859 0 859-27.5 864.05-27.5 864.05 0ZM873.5 0L848.85 0 848.85-4.1 873.5-4.1 873.5 0ZM861.5-23.4L852.5-23.4 852.5-27.5 861.5-27.5 861.5-23.4ZM864.3-32.2L858.65-32.2 858.65-37.65 864.3-37.65 864.3-32.2ZM895.25 0L890.2 0 890.2-30.6Q890.2-33.15 891.15-35.05 892.1-36.95 893.98-38.05 895.85-39.15 898.6-39.15L898.6-39.15 906.8-39.15 906.8-35.05 900.1-35.05Q898.75-35.05 897.63-34.7 896.5-34.35 895.88-33.43 895.25-32.5 895.25-30.75L895.25-30.75 895.25 0ZM903.9-23.4L883.7-23.4 883.7-27.5 903.9-27.5 903.9-23.4ZM906.25 0L881.45 0 881.45-4.1 906.25-4.1 906.25 0ZM938.6 0L928.5 0Q925.95 0 924.15-1.03 922.35-2.05 921.45-3.95 920.55-5.85 920.55-8.4L920.55-8.4 920.55-32.7 925.6-35.45 925.6-8.4Q925.6-7.2 925.95-6.2 926.3-5.2 927.33-4.65 928.35-4.1 930.35-4.1L930.35-4.1 938.6-4.1 938.6 0ZM934.2-23.4L914.05-23.4 914.05-27.5 934.2-27.5 934.2-23.4Z" opacity="1" transform="matrix(1,0,0,1,0,0)" fill="#2d3b41" class="slogan-text-1" data-fill-palette-color="secondary" id="text-1"></path></svg></g></svg></g></svg></g></svg></g><g></g></svg></g></svg></g></svg></g><defs></defs></svg><rect width="395.52" height="97.57002157659436" fill="none" stroke="none" visibility="hidden"></rect></g></svg></g></svg>
